# xmcd
#
# Track frame offsets: 
#        150
#        14047
#        28698
#        44539
#        56645
#        77521
#        93569
#        115105
#        131456
#        150984
#        175398
#        192380
#        208253
#        229295
#        253978
#        272103
#        289599
#        308985
#        327247
#
# Disc length: 4715 seconds
#
# Revision: 0
# Processed by: cddbd v1.5.2PL0 Copyright (c) Steve Scherf et al.
# Submitted via: ExactAudioCopy v0.95b4
#
DISCID=18126913
DTITLE=Любэ - Лучшие Песни (Часть 1)
DYEAR=2008
DGENRE=Pop
TTITLE0=Люберцы
TTITLE1=Атас
TTITLE2=Станция Таганская
TTITLE3=Клетки
TTITLE4=Сирота казанская
TTITLE5=Ночь
TTITLE6=Дуся-агрегат
TTITLE7=Шпарю
TTITLE8=Улочки московские
TTITLE9=Ребята с нашего двора
TTITLE10=Батька Махно
TTITLE11=Не валяй дурака, Америка
TTITLE12=Трамвай "Пятерочка"
TTITLE13=Давай - наяривай
TTITLE14=Не губите, мужики
TTITLE15=Старые друзья
TTITLE16=Тулупчик заячий
TTITLE17=Прорвёмся (опера)
TTITLE18=Луна
EXTD=
EXTT0=
EXTT1=
EXTT2=
EXTT3=
EXTT4=
EXTT5=
EXTT6=
EXTT7=
EXTT8=
EXTT9=
EXTT10=
EXTT11=
EXTT12=
EXTT13=
EXTT14=
EXTT15=
EXTT16=
EXTT17=
EXTT18=
PLAYORDER=
